<svg width="16" height="16" viewBox="0 0 16 16" fill="none" xmlns="http://www.w3.org/2000/svg">
<path d="M11.3453 14.8029C12.2549 14.8029 13.1135 14.4547 13.7629 13.8227C14.4124 13.1906 14.77 12.3549 14.77 11.4695V4.53049C14.77 3.64512 14.4124 2.80943 13.7629 2.17733C13.1135 1.54524 12.2549 1.19714 11.3453 1.19714H4.65472C3.74507 1.19714 2.88646 1.54524 2.23704 2.17733C1.58761 2.80943 1.22997 3.64512 1.22997 4.53049V11.4695C1.22997 12.3549 1.58761 13.1906 2.23704 13.8227C2.88646 14.4547 3.74507 14.8029 4.65472 14.8029H11.3453ZM11.3453 16H4.65472C2.09461 16 0 13.9613 0 11.4695V4.53049C0 2.03871 2.09461 0 4.65472 0H11.3453C13.9054 0 16 2.03871 16 4.53049V11.4695C16 13.9613 13.9054 16 11.3453 16Z" fill="white"/>
<path d="M8.00351 5.13359C6.41013 5.13359 5.11849 6.3908 5.11849 7.94162C5.11849 9.49247 6.41013 10.7497 8.00351 10.7497C9.59689 10.7497 10.8885 9.49247 10.8885 7.94162C10.8885 6.3908 9.59689 5.13359 8.00351 5.13359ZM12.4306 7.93825C12.4306 10.3066 10.458 12.2265 8.02471 12.2265C5.59142 12.2265 3.61883 10.3066 3.61883 7.93825C3.61883 5.56987 5.59142 3.64992 8.02471 3.64992C10.458 3.64992 12.4306 5.56987 12.4306 7.93825Z" fill="white"/>
<path d="M13.5446 3.58323C13.5446 4.14401 13.0775 4.59864 12.5013 4.59864C11.9252 4.59864 11.4581 4.14401 11.4581 3.58323C11.4581 3.02245 11.9252 2.56781 12.5013 2.56781C13.0775 2.56781 13.5446 3.02245 13.5446 3.58323Z" fill="white"/>
</svg>
