<svg width="18" height="14" viewBox="0 0 18 14" fill="none" xmlns="http://www.w3.org/2000/svg">
<path id="twitter" fill-rule="evenodd" clip-rule="evenodd" d="M18 1.67298C17.3793 1.93713 16.6699 2.11321 15.8719 2.20126C16.5813 1.76101 17.202 1.05659 17.468 0.26414C16.7586 0.704392 15.9606 0.968543 15.1626 1.14464C14.5419 0.440241 13.5665 0 12.5025 0C10.4631 0 8.867 1.58491 8.867 3.52201C8.867 3.78616 8.867 4.05034 8.95567 4.31449C5.94089 4.13839 3.28079 2.72957 1.41872 0.616363C1.06404 1.14466 0.886702 1.76102 0.886702 2.37737C0.886702 3.61007 1.50739 4.66665 2.48276 5.37105C1.86207 5.37105 1.33005 5.19495 0.798027 4.9308C0.798027 4.9308 0.798027 4.93083 0.798027 5.01888C0.798027 6.77989 2.03941 8.18869 3.72414 8.54089C3.45813 8.62894 3.10345 8.62892 2.74877 8.62892C2.48276 8.62892 2.30542 8.62894 2.03941 8.54089C2.48276 9.9497 3.81281 11.0063 5.40887 11.0063C4.16749 11.9748 2.57143 12.5032 0.886702 12.5032C0.620692 12.5032 0.266013 12.5031 2.70599e-06 12.4151C1.59606 13.4717 3.5468 14 5.58621 14C12.2365 14 15.9606 8.5409 15.9606 3.87424C15.9606 3.69813 15.9606 3.52203 15.9606 3.43398C16.936 2.99373 17.5567 2.37738 18 1.67298Z" fill="white"/>
</svg>
